#!OML:ASF F:\VICON\USERDATA\INSTALL\rory3\rory3.ASF
:FULLY-SPECIFIED
:DEGREES
19
root -0.4359779999999996 18.6776 -10.523399999999963 2.738289999999999 5.639250000000008 -3.546829999999999
lfemur -28.832400000000014 -2.690209999999995 -20.2736
ltibia 19.47559999999998
lfoot 3.056179999999999 -9.97134
ltoes -15.401800000000014
rfemur 9.646729999999955 7.856310000000006 35.2124
rtibia 60.6257
rfoot 27.686600000000002 -11.331399999999991
rtoes 27.489500000000024
lowerback 1.0 2.4369299999999963 5.302709999999998
upperback -1.1554799999999998 4.193159999999995 1.2432700000000003
thorax -8.291239999999998 1.819419999999997 -2.485949999999997
lowerneck -19.147 -6.222790000000003 -1.6725400000000006
upperneck 16.411799999999992 -8.333460000000002 1.4021700000000012
head 8.37436 -3.890480000000001 -0.31734499999999977
lclavicle -6.684130000000012e-14 -5.168399999999993e-15
lhumerus -70.5496 -3.463709999999997 94.8534
lradius 109.179
lwrist 31.981899999999996
lhand -33.246 0.254434
lfingers 7.12502
lthumb -6.451740000000003 30.1362
rclavicle -6.684130000000012e-14 -5.168399999999993e-15
rhumerus -48.1758 19.89840000000001 -103.771
rradius 123.59999999999997
rwrist -24.345999999999986
rhand -18.9559 1.0
rfingers 7.12502
rthumb 7.347749999999999 6.0671800000000005
20
root -0.45466500000000015 18.6112 -10.027599999999971 2.1268300000000018 6.338140000000009 -3.276169999999997
lfemur -28.046199999999978 -2.559579999999997 -20.8975
ltibia 20.360600000000055
lfoot 3.143789999999999 -10.713800000000003
ltoes -15.415
rfemur 8.357560000000039 6.716320000000002 34.726500000000016
rtibia 65.1707
rfoot 28.504499999999993 -13.323600000000017
rtoes 29.1676
lowerback 1.0 2.187510000000003 4.986610000000006
upperback -0.8779229999999999 3.84531 1.1286800000000001
thorax -8.53458 1.6569499999999984 -2.405389999999995
lowerneck -19.6462 -6.189829999999999 -1.5925200000000006
upperneck 16.135 -8.317099999999998 1.5201100000000027
head 8.36857 -3.8632800000000014 -0.29883899999999863
lclavicle -5.118709999999996e-14 -3.299829999999993e-14
lhumerus -69.56330000000003 -3.980779999999994 95.0615
lradius 109.487
lwrist 32.35860000000001
lhand -33.2889 0.3196270000000001
lfingers 7.12502
lthumb -6.493110000000003 30.2001
rclavicle -5.118709999999996e-14 -3.299829999999993e-14
rhumerus -47.760799999999996 19.61479999999999 -103.84499999999998
rradius 122.57399999999998
rwrist -24.742299999999986
rhand -18.556 1.0
rfingers 7.12502
rthumb 7.73372 6.237299999999999
21
root -0.5317074738227141 18.293290673537317 -2.5432043528061508 2.477082427088912 7.854563416128365 -3.07995436826109
lfemur -30.145204010532403 -3.5135802863143306 -20.16336181262229
ltibia 22.428671104623135
lfoot -0.9780323888335736 -9.75491272111698
ltoes -22.5234816354415
rfemur 8.73624327769026 6.126100789509657 34.983000939579796
rtibia 63.49006999669702
rfoot 25.54508025820399 -13.83236707224609
rtoes 29.97044986949763
lowerback 1.0 1.9844137705240223 4.667579565176257
upperback -1.1771531505126132 3.562589240623386 1.3504159642698244
thorax -9.217955850211546 1.479037319341163 -1.9179561968497167
lowerneck -18.83309079209245 -6.226106846260707 -1.7429414404292674
upperneck 15.883703339036025 -8.179398568729312 1.5969660416447542
head 8.112648194789399 -3.8035756530775937 -0.19832487050989955
lclavicle -2.3381358679758364e-14 -3.76541959183933e-14
lhumerus -69.06599522537049 -4.4852064259406905 95.427631273236
lradius 109.62860879954309
lwrist 30.873299480171735
lhand -34.331717849090936 -0.34314435863550097
lfingers nan
lthumb -7.529376559266453 29.530360158904656
rclavicle -2.408027340364691e-14 -3.785339364339456e-14
rhumerus -47.21707138493777 19.169499311222538 -103.81249482648414
rradius 124.36335893782213
rwrist -27.32086908130112
rhand -18.36966957780733 1.0
rfingers nan
rthumb 7.905972742660984 6.5949692614564395
22
root -0.5897997655858085 18.08661234091647 -3.882684517852174 2.7150770731111518 9.087612380793361 -2.762208708861161
lfemur -31.885899478901454 -4.26258387323504 -19.972508005046606
ltibia 23.660770152752306
lfoot -6.458435611523409 -8.675528231473926
ltoes -27.069697778325995
rfemur 9.274279173511296 5.33232568001465 34.92422476029115
rtibia 61.21249633745254
rfoot 23.34314834058218 -14.386411214590403
rtoes 31.912299027798493
lowerback 1.0 1.883427359093072 4.420508474819431
upperback -1.438987665193055 3.400383411570645 1.358742617390201
thorax -9.596279426296132 1.3868824200008265 -1.6791013896735478
lowerneck -18.061510631946575 -6.333391606650299 -1.7871335010707181
upperneck 15.42418672954998 -8.25652518970836 1.7882919217078477
head 7.816009529524433 -3.8270155007422013 -0.09758778190109252
lclavicle -5.844582118790141e-14 -4.421093562093781e-14
lhumerus -68.42020277008858 -5.241793747741573 95.83715855057669
lradius 110.14466522347392
lwrist 29.55909427694465
lhand -36.00203811674808 0.1819760856208365
lfingers nan
lthumb -9.15880740641687 30.02833162790886
rclavicle -5.871679051634721e-14 -4.504854341991425e-14
rhumerus -46.92388551307119 18.729705486792646 -104.2308630502555
rradius 126.62929656570216
rwrist -33.14284566430333
rhand -18.205511909228957 1.0
rfingers nan
rthumb 8.044960571775546 6.078550933238552
